<svg width="221" height="203" viewBox="0 0 221 203" fill="none" xmlns="http://www.w3.org/2000/svg">
<path d="M102.754 0V0.293724H0V100.233V103.06V203H102.754V103.06V102.767H205.508V0H102.754Z" fill="url(#paint0_linear)"/>
<path d="M22.7974 184.938V115.509H49.2293C70.6318 115.509 84.068 128.543 84.068 150.242C84.068 171.941 70.6318 184.938 49.4862 184.938H22.7974ZM48.8254 168.894C59.1045 168.894 65.0884 164.708 65.0884 150.206C65.0884 135.703 59.1045 131.481 48.2748 131.481H41.6301V168.894H48.8254Z" fill="white"/>
<path d="M125.882 15.2741H186.198V30.4743H165.199V84.7031H146.844V30.4743H125.882V15.2741Z" fill="white"/>
<path d="M53.2684 85.9143C34.2888 85.9143 19.531 73.3208 19.531 50.2635C19.531 27.2062 34.2888 14.6862 53.2684 14.6862C72.248 14.6862 87.0425 27.1695 87.0425 50.3369C87.0425 73.5044 72.1378 85.9143 53.2684 85.9143ZM53.2684 31.0246C43.9438 31.0246 38.9144 37.7802 38.9144 50.2635C38.9144 62.7468 43.9438 69.5024 53.2684 69.5024C62.593 69.5024 67.6591 62.7468 67.6591 50.2635C67.6591 37.7802 62.6297 31.0246 53.2684 31.0246Z" fill="white"/>
<path d="M130.36 131.516V146.532L120.705 156.189L130.36 165.845V180.421H143.283H151.102H157.673H221V131.516H130.36Z" fill="#001620"/>
<path d="M154.187 151.013H149.635V168.452H144.605V151.013H141.448V147.121H144.605V145.101C144.559 144.223 144.703 143.346 145.026 142.528C145.349 141.71 145.845 140.972 146.478 140.362C147.112 139.753 147.869 139.287 148.699 138.996C149.529 138.705 150.411 138.596 151.287 138.676C152.533 138.69 153.77 138.888 154.958 139.264L154.187 143.192C153.579 143.011 152.949 142.912 152.315 142.898C150.442 142.898 149.745 143.816 149.745 145.468V147.157H154.187V151.013Z" fill="white"/>
<path d="M155.507 157.877C155.374 156.475 155.536 155.06 155.984 153.725C156.431 152.389 157.154 151.162 158.106 150.124C159.058 149.086 160.217 148.259 161.508 147.697C162.8 147.135 164.195 146.851 165.603 146.862C170.853 146.862 175.331 150.167 175.331 157.657V159.199H160.647C160.573 159.947 160.66 160.703 160.902 161.416C161.144 162.128 161.536 162.781 162.05 163.33C162.564 163.879 163.19 164.312 163.885 164.6C164.58 164.888 165.328 165.024 166.08 165C167.028 165.079 167.976 164.856 168.788 164.361C169.599 163.866 170.233 163.125 170.596 162.246L175.295 162.76C174.709 164.738 173.437 166.442 171.708 167.566C169.978 168.69 167.905 169.16 165.86 168.892C164.424 168.965 162.989 168.724 161.655 168.187C160.321 167.65 159.119 166.829 158.134 165.781C157.149 164.733 156.404 163.483 155.951 162.118C155.497 160.753 155.346 159.306 155.507 157.877ZM170.522 155.747C170.558 155.093 170.458 154.438 170.229 153.824C170.001 153.21 169.648 152.65 169.193 152.178C168.739 151.706 168.192 151.333 167.587 151.082C166.982 150.83 166.331 150.706 165.676 150.717C164.326 150.707 163.026 151.23 162.057 152.171C161.088 153.112 160.529 154.397 160.5 155.747H170.522Z" fill="white"/>
<path d="M191.118 153.252C190.896 152.412 190.383 151.677 189.67 151.18C188.958 150.682 188.092 150.454 187.227 150.535C185.097 150.535 183.555 151.526 183.555 152.958C183.555 154.39 184.4 154.941 186.566 155.418L190.237 156.226C194.275 157.07 196.221 158.943 196.257 161.99C196.257 166.029 192.586 168.783 187.153 168.783C181.72 168.783 178.636 166.469 178.012 162.541L182.895 162.1C183.082 163.039 183.628 163.867 184.416 164.409C185.205 164.95 186.174 165.163 187.116 165.001C189.503 165.001 191.118 163.899 191.118 162.431C191.118 160.962 190.2 160.448 188.218 160.008L184.547 159.236C180.472 158.392 178.526 156.336 178.563 153.252C178.563 149.287 182.234 146.753 187.19 146.753C189.104 146.477 191.051 146.938 192.638 148.042C194.226 149.146 195.336 150.811 195.743 152.701L191.118 153.252Z" fill="white"/>
<path d="M210.171 151.01H205.949V162.025C205.949 164.044 206.977 164.485 208.225 164.485C208.725 164.542 209.23 164.542 209.73 164.485L210.574 168.413C209.615 168.735 208.612 168.909 207.601 168.927C206.763 169.064 205.906 169.013 205.09 168.777C204.275 168.542 203.522 168.128 202.886 167.566C202.25 167.003 201.747 166.307 201.413 165.526C201.079 164.746 200.923 163.901 200.956 163.053V151.01H197.909V147.118H200.956V142.015H205.949V147.118H210.171V151.01Z" fill="white"/>
<defs>
<linearGradient id="paint0_linear" x1="-6.5" y1="4.1338e-06" x2="211.421" y2="23.795" gradientUnits="userSpaceOnUse">
<stop stop-color="#3CBBF7"/>
<stop offset="0.51694" stop-color="#419AD9"/>
<stop offset="1" stop-color="#4B5DA4"/>
</linearGradient>
</defs>
</svg>
