<svg width="117.64mm" height="41.78mm" clip-rule="evenodd" fill-rule="evenodd" image-rendering="optimizeQuality" shape-rendering="geometricPrecision" text-rendering="geometricPrecision" version="1.1" viewBox="0 0 11764 4178" xml:space="preserve" xmlns="http://www.w3.org/2000/svg">
 <g transform="translate(-2037 -4094)" clip-rule="evenodd" fill="#d10000" fill-rule="evenodd" image-rendering="optimizeQuality" shape-rendering="geometricPrecision" stroke="#fff" stroke-linecap="round" stroke-linejoin="round" stroke-width="800"><path class="fil1" d="m5031 5574c-128 0-199 35-252 101l27-101h-931l-180 669 570 1213h37l412-1540c22-82 77-113 178-113h109c101 0 115 19 88 120l-411 1533h931l423-1575c55-206-19-307-225-307zm2575 0-413 1541c-22 81-77 112-178 112h-108c-101 0-115-19-88-120l410-1533h-931l-422 1576c-55 205 19 306 224 306h776c128 0 200-35 252-101l-27 101h932l504-1882zm1345-714-695 2596h931l696-2596zm2184 714h-924l-769 931 257 951h932l-293-951zm768 803 122-454c27-101 52-120 153-120h205c101 0 115 19 88 120l-121 454zm-409-803c-206 0-334 101-389 307l-340 1269c-55 205 19 306 224 306h1665c206 0 334-101 389-306l88-330h-900l-77 287c-27 101-52 120-152 120h-206c-101 0-115-19-88-120l134-501h1347l194-725c55-206-19-307-224-307z"/>
     <path class="fil3" d="m3693 6854 108 55c132 285 205 440 336 725l400 196-16 42h-601l-74-23s-723 63-1028-229c-136-131-166-317-98-469l1-2c32-70 85-133 159-179l46-66-154-478c-40-120-72-210 14-198l-43-275-26 1-92-577-43-23c-26-346 13-206-145-514l113-274 208-72 3 48c390 72 780 144 1169 216l16-42c194 38 1643 301 1699 350 48 41 149 193 270 392-62-44-147-68-253-68h-1966l-535-75 21 232 458 1072c139 54-23 155 53 235zm-926-2220 1 24 324 336h1290l-500-105 16-45zm538 1770-330-33 120 377 351-98zm-435-158c156 33 185 21 356 21l-473-820 99 502-28 1z" fill-rule="nonzero"/></g>
    <g transform="translate(-2037 -4094)"><path class="fil1" d="m5031 5574c-128 0-199 35-252 101l27-101h-931l-180 669 570 1213h37l412-1540c22-82 77-113 178-113h109c101 0 115 19 88 120l-411 1533h931l423-1575c55-206-19-307-225-307zm2575 0-413 1541c-22 81-77 112-178 112h-108c-101 0-115-19-88-120l410-1533h-931l-422 1576c-55 205 19 306 224 306h776c128 0 200-35 252-101l-27 101h932l504-1882zm1345-714-695 2596h931l696-2596zm2184 714h-924l-769 931 257 951h932l-293-951zm768 803 122-454c27-101 52-120 153-120h205c101 0 115 19 88 120l-121 454zm-409-803c-206 0-334 101-389 307l-340 1269c-55 205 19 306 224 306h1665c206 0 334-101 389-306l88-330h-900l-77 287c-27 101-52 120-152 120h-206c-101 0-115-19-88-120l134-501h1347l194-725c55-206-19-307-224-307z"/>
        <path class="fil3" d="m3693 6854 108 55c132 285 205 440 336 725l400 196-16 42h-601l-74-23s-723 63-1028-229c-136-131-166-317-98-469l1-2c32-70 85-133 159-179l46-66-154-478c-40-120-72-210 14-198l-43-275-26 1-92-577-43-23c-26-346 13-206-145-514l113-274 208-72 3 48c390 72 780 144 1169 216l16-42c194 38 1643 301 1699 350 48 41 149 193 270 392-62-44-147-68-253-68h-1966l-535-75 21 232 458 1072c139 54-23 155 53 235zm-926-2220 1 24 324 336h1290l-500-105 16-45zm538 1770-330-33 120 377 351-98zm-435-158c156 33 185 21 356 21l-473-820 99 502-28 1z" fill="#f8b435" fill-rule="nonzero"/></g>
</svg>
