<?xml version="1.0" encoding="UTF-8" standalone="no"?>
<svg
   height="105"
   viewBox="0 0 105 105"
   width="105"
   version="1.1"
   id="svg37"
   sodipodi:docname="rider-icon.svg"
   xmlns:inkscape="http://www.inkscape.org/namespaces/inkscape"
   xmlns:sodipodi="http://sodipodi.sourceforge.net/DTD/sodipodi-0.dtd"
   xmlns:xlink="http://www.w3.org/1999/xlink"
   xmlns="http://www.w3.org/2000/svg"
   xmlns:svg="http://www.w3.org/2000/svg">
  <defs
     id="defs41">
    <linearGradient
       id="linearGradient147"
       gradientUnits="userSpaceOnUse"
       x1="50.330002"
       x2="79.660004"
       y1="12.76"
       y2="93.760002">
      <stop
         offset=".14"
         stop-color="#087cfa"
         id="stop9-3" />
      <stop
         offset=".48"
         stop-color="#dd1265"
         id="stop11-8" />
      <stop
         offset=".96"
         stop-color="#087cfa"
         id="stop13-0" />
    </linearGradient>
    <linearGradient
       id="linearGradient151"
       gradientUnits="userSpaceOnUse"
       x1="28.360001"
       x2="50.02"
       y1="15.26"
       y2="92.260002">
      <stop
         offset=".28"
         stop-color="#dd1265"
         id="stop16-2" />
      <stop
         offset=".97"
         stop-color="#fdb60d"
         id="stop18-4" />
    </linearGradient>
    <linearGradient
       id="linearGradient156"
       gradientUnits="userSpaceOnUse"
       x1="94.330002"
       x2="20.33"
       y1="59.369999"
       y2="16.91">
      <stop
         offset="0"
         stop-color="#dd1265"
         id="stop2-8" />
      <stop
         offset=".48"
         stop-color="#dd1265"
         id="stop4-3" />
      <stop
         offset=".94"
         stop-color="#fdb60d"
         id="stop6-9" />
    </linearGradient>
    <linearGradient
       inkscape:collect="always"
       xlink:href="#a"
       id="linearGradient162"
       gradientUnits="userSpaceOnUse"
       x1="94.33"
       y1="59.37"
       x2="20.33"
       y2="16.91"
       gradientTransform="translate(-122.93211,-9.1889822)" />
    <linearGradient
       inkscape:collect="always"
       xlink:href="#b"
       id="linearGradient164"
       gradientUnits="userSpaceOnUse"
       x1="50.33"
       y1="12.76"
       x2="79.66"
       y2="93.76"
       gradientTransform="translate(-122.93211,-9.1889822)" />
    <linearGradient
       inkscape:collect="always"
       xlink:href="#c"
       id="linearGradient166"
       gradientUnits="userSpaceOnUse"
       x1="28.36"
       y1="15.26"
       x2="50.02"
       y2="92.26"
       gradientTransform="translate(-122.93211,-9.1889822)" />
  </defs>
  <sodipodi:namedview
     id="namedview39"
     pagecolor="#ffffff"
     bordercolor="#666666"
     borderopacity="1.0"
     inkscape:pageshadow="2"
     inkscape:pageopacity="0.0"
     inkscape:pagecheckerboard="0"
     showgrid="false" />
  <linearGradient
     id="a"
     gradientUnits="userSpaceOnUse"
     x1="94.33"
     x2="20.33"
     y1="59.37"
     y2="16.91">
    <stop
       offset="0"
       stop-color="#dd1265"
       id="stop2" />
    <stop
       offset=".48"
       stop-color="#dd1265"
       id="stop4" />
    <stop
       offset=".94"
       stop-color="#fdb60d"
       id="stop6" />
  </linearGradient>
  <linearGradient
     id="b"
     gradientUnits="userSpaceOnUse"
     x1="50.33"
     x2="79.66"
     y1="12.76"
     y2="93.76">
    <stop
       offset=".14"
       stop-color="#087cfa"
       id="stop9" />
    <stop
       offset=".48"
       stop-color="#dd1265"
       id="stop11" />
    <stop
       offset=".96"
       stop-color="#087cfa"
       id="stop13" />
  </linearGradient>
  <linearGradient
     id="c"
     gradientUnits="userSpaceOnUse"
     x1="28.36"
     x2="50.02"
     y1="15.26"
     y2="92.26">
    <stop
       offset=".28"
       stop-color="#dd1265"
       id="stop16" />
    <stop
       offset=".97"
       stop-color="#fdb60d"
       id="stop18" />
  </linearGradient>
  <path
     d="m100.5 41.73-67.3-37.35 45.06 66.95 9.26-6.07z"
     fill="url(#a)"
     id="path21" />
  <path
     d="m73.65 26.5-8.43-20.61-18.65 18.36 7.63 66.62 18.07 9.51 28.23-16.49z"
     fill="url(#b)"
     id="path23" />
  <path
     d="m33.2 4.38-28.7 19.33 10.67 65.93 27.52 10.58 35.57-28.89z"
     fill="url(#c)"
     id="path25" />
  <path
     d="m -22.432098,32.541017 -67.30001,-37.3499992 45.06001,66.9499992 9.26,-6.07 z"
     fill="url(#a)"
     id="path21-0"
     style="fill:url(#linearGradient162)" />
  <path
     d="m -49.282098,17.311017 -8.43,-20.6099992 -18.65,18.3599992 7.63,66.62 18.07,9.510003 28.23,-16.490003 z"
     fill="url(#b)"
     id="path23-5"
     style="fill:url(#linearGradient164)" />
  <path
     d="m -89.732108,-4.8089822 -28.700002,19.3299992 10.67,65.93 27.520012,10.580003 35.57,-28.890003 z"
     fill="url(#c)"
     id="path25-2"
     style="fill:url(#linearGradient166)" />
  <path
     d="m22.5 22.5h60v60h-60z"
     id="path27" />
  <g
     fill="#fff"
     id="g35">
    <path
       d="m29.98 71.16h22.5v3.75h-22.5z"
       id="path29" />
    <path
       d="m30 29.92h10.3a9 9 0 0 1 6.57 2.29 7.08 7.08 0 0 1 1.94 5.16v.06a7 7 0 0 1 -4.84 7l5.52 8.06h-5.81l-4.83-7.22h-3.85v7.22h-5zm10 11c2.42 0 3.81-1.29 3.81-3.19v-.06c0-2.13-1.48-3.23-3.9-3.23h-4.91v6.48z"
       id="path31" />
    <path
       d="m52.93 29.92h8.8c7.09 0 12 4.87 12 11.22v.07c0 6.35-4.9 11.28-12 11.28h-8.8zm5 4.48v13.6h3.84a6.43 6.43 0 0 0 6.8-6.74v-.06a6.49 6.49 0 0 0 -6.8-6.81z"
       id="path33" />
  </g>
</svg>
